<svg data-v-0dd9719b="" version="1.0" xmlns="http://www.w3.org/2000/svg" xmlns:xlink="http://www.w3.org/1999/xlink" width="100%" height="100%" viewBox="0 0 300.000000 250.000000" preserveAspectRatio="xMidYMid meet" color-interpolation-filters="sRGB" style="margin: auto;">
    <rect data-v-0dd9719b="" x="0" y="0" width="100%" height="100%" fill="#ffffff" fill-opacity="1" class="background"></rect> <!----> <g data-v-0dd9719b="" fill="#1582c7" class="icon-text-wrapper icon-svg-group iconsvg" transform="translate(72.83000183105469,98.50425720214844)"><g class="iconsvg-imagesvg" transform="translate(0,3.9452857971191406)"><g><rect fill="#1582c7" fill-opacity="0" stroke-width="2" x="0" y="0" width="60" height="45.100913293494195" class="image-rect"></rect> <svg filter="url(#colors6427340716)" x="0" y="0" width="60" height="45.100913293494195" filtersec="colorsf530369905" class="image-svg-svg primary" style="overflow: visible;"><svg xmlns="http://www.w3.org/2000/svg" viewBox="0.8999999999999999 0 107.9 82.1"><path d="M99.9 21.2l6.9 6.9-52 52-6.9-6.9 52-52zm-67 36.9l6.9 6.9 51.9-51.9-6.9-6.9-51.9 51.9zM58.9 2l-41 41.1 6.9 6.9 48-48H58.9zm-30 0l-26 26 6.8 7 33-33H28.9z" fill="none" stroke="#202121" stroke-width="4" stroke-miterlimit="10"></path></svg></svg> <defs><filter id="colors6427340716"><feColorMatrix type="matrix" values="0 0 0 0 0.08203125  0 0 0 0 0.5078125  0 0 0 0 0.77734375  0 0 0 1 0" class="icon-fecolormatrix"></feColorMatrix></filter> <filter id="colorsf530369905"><feColorMatrix type="matrix" values="0 0 0 0 0.99609375  0 0 0 0 0.99609375  0 0 0 0 0.99609375  0 0 0 1 0" class="icon-fecolormatrix"></feColorMatrix></filter> <filter id="colorsb2804834762"><feColorMatrix type="matrix" values="0 0 0 0 0  0 0 0 0 0  0 0 0 0 0  0 0 0 1 0" class="icon-fecolormatrix"></feColorMatrix></filter></defs></g></g> <g transform="translate(67,0)"><g data-gra="path-name" fill-rule="" class="tp-name iconsvg-namesvg" transform="translate(0,0)"><g transform="scale(1)"><g><path d="M17.96-18.61L17.96 0 12.91 0 12.91-7.59 7.07-7.59 7.07 0 2.01 0 2.01-18.61 7.07-18.61 7.07-11.71 12.91-11.71 12.91-18.61 17.96-18.61ZM38.91 0L33.41 0 32.49-3.49 26.44-3.49 25.5 0 19.98 0 26.05-18.69 32.76-18.69 38.91 0ZM27.49-7.61L31.45-7.61 30.64-10.67Q30.36-11.69 29.96-13.3 29.56-14.92 29.43-15.62L29.43-15.62Q29.32-14.97 28.98-13.48 28.65-11.99 27.49-7.61L27.49-7.61ZM47.22-6.77L45.95-6.77 45.95 0 40.92 0 40.92-18.61 47.02-18.61Q54.6-18.61 54.6-13.11L54.6-13.11Q54.6-9.88 51.45-8.11L51.45-8.11 56.87 0 51.17 0 47.22-6.77ZM45.95-14.81L45.95-10.55 46.89-10.55Q49.53-10.55 49.53-12.88L49.53-12.88Q49.53-14.81 46.94-14.81L46.94-14.81 45.95-14.81ZM74.36-9.7L74.36-9.7Q74.36-5.04 71.8-2.52 69.23 0 64.59 0L64.59 0 58.56 0 58.56-18.61 65.01-18.61Q69.49-18.61 71.93-16.32 74.36-14.03 74.36-9.7ZM69.14-9.52L69.14-9.52Q69.14-12.08 68.13-13.32 67.12-14.55 65.06-14.55L65.06-14.55 63.59-14.55 63.59-4.12 64.71-4.12Q67.01-4.12 68.07-5.46 69.14-6.79 69.14-9.52ZM93.65-18.61L93.65 0 88.6 0 88.6-7.59 82.75-7.59 82.75 0 77.7 0 77.7-18.61 82.75-18.61 82.75-11.71 88.6-11.71 88.6-18.61 93.65-18.61ZM114.6 0L109.1 0 108.18-3.49 102.13-3.49 101.19 0 95.66 0 101.74-18.69 108.45-18.69 114.6 0ZM103.18-7.61L107.13-7.61 106.33-10.67Q106.05-11.69 105.65-13.3 105.25-14.92 105.12-15.62L105.12-15.62Q105.01-14.97 104.67-13.48 104.33-11.99 103.18-7.61L103.18-7.61ZM124.82-14.5L124.82 0 119.79 0 119.79-14.5 115.24-14.5 115.24-18.61 129.35-18.61 129.35-14.5 124.82-14.5Z" transform="translate(-2.009999990463257, 18.690000534057617)"></path></g> <!----> <!----> <!----> <!----> <!----> <!----> <g data-gra="path-name-1" fill="#1582c7" transform="translate(0,21.690000534057617)"><g transform="scale(0.99205)"><path d="M12.84 0L8.72 0 5.44-11.55 5.34-11.55Q5.57-8.6 5.57-6.96L5.57-6.96 5.57 0 1.73 0 1.73-16.03 7.5-16.03 10.84-4.65 10.93-4.65 14.21-16.03 19.99-16.03 19.99 0 16.01 0 16.01-7.03Q16.01-7.58 16.02-8.24 16.04-8.91 16.17-11.52L16.17-11.52 16.07-11.52 12.84 0ZM32.96-3.53L32.96 0 23.44 0 23.44-16.03 32.96-16.03 32.96-12.55 27.77-12.55 27.77-10.03 32.57-10.03 32.57-6.56 27.77-6.56 27.77-3.53 32.96-3.53ZM42.84-12.49L42.84 0 38.51 0 38.51-12.49 34.59-12.49 34.59-16.03 46.74-16.03 46.74-12.49 42.84-12.49ZM63.6 0L58.87 0 58.08-3 52.87-3 52.06 0 47.3 0 52.53-16.1 58.31-16.1 63.6 0ZM53.77-6.56L57.18-6.56 56.49-9.19Q56.25-10.06 55.9-11.46 55.55-12.85 55.44-13.45L55.44-13.45Q55.35-12.89 55.06-11.61 54.77-10.33 53.77-6.56L53.77-6.56ZM76.44 0L72.32 0 69.04-11.55 68.94-11.55Q69.17-8.6 69.17-6.96L69.17-6.96 69.17 0 65.33 0 65.33-16.03 71.1-16.03 74.45-4.65 74.53-4.65 77.81-16.03 83.59-16.03 83.59 0 79.61 0 79.61-7.03Q79.61-7.58 79.63-8.24 79.64-8.91 79.77-11.52L79.77-11.52 79.68-11.52 76.44 0ZM101.61 0L96.88 0 96.09-3 90.88-3 90.07 0 85.31 0 90.54-16.1 96.32-16.1 101.61 0ZM91.78-6.56L95.19-6.56 94.5-9.19Q94.26-10.06 93.91-11.46 93.57-12.85 93.46-13.45L93.46-13.45Q93.36-12.89 93.07-11.61 92.78-10.33 91.78-6.56L91.78-6.56ZM113.83-4.87L113.83-4.87Q113.83-3.38 113.07-2.22 112.32-1.06 110.89-0.42 109.46 0.22 107.55 0.22L107.55 0.22Q105.95 0.22 104.86-0.01 103.77-0.23 102.6-0.79L102.6-0.79 102.6-4.65Q103.84-4.01 105.18-3.66 106.52-3.3 107.63-3.3L107.63-3.3Q108.6-3.3 109.05-3.63 109.5-3.97 109.5-4.5L109.5-4.5Q109.5-4.82 109.32-5.07 109.14-5.32 108.74-5.57 108.34-5.82 106.6-6.6L106.6-6.6Q105.04-7.31 104.25-7.98 103.47-8.65 103.09-9.52 102.71-10.38 102.71-11.57L102.71-11.57Q102.71-13.78 104.32-15.02 105.93-16.26 108.75-16.26L108.75-16.26Q111.24-16.26 113.83-15.11L113.83-15.11 112.5-11.76Q110.25-12.79 108.62-12.79L108.62-12.79Q107.78-12.79 107.39-12.5 107.01-12.2 107.01-11.76L107.01-11.76Q107.01-11.29 107.5-10.92 107.98-10.55 110.14-9.56L110.14-9.56Q112.22-8.63 113.02-7.56 113.83-6.49 113.83-4.87ZM125.03-8.85L130 0 125.11 0 121.94-6.13 120.66-5.36 120.66 0 116.31 0 116.31-16.03 120.66-16.03 120.66-9.07Q120.99-9.71 121.99-11.12L121.99-11.12 125.35-16.03 130.09-16.03 125.03-8.85Z" transform="translate(-1.7300000190734863, 16.260000228881836)"></path></g></g></g></g> <g data-gra="path-slogan" fill-rule="" class="tp-slogan iconsvg-slogansvg" fill="#1582c7" transform="translate(25.63500213623047,44.03898620605469)"><!----> <!----> <g transform="scale(1, 1)"><g transform="scale(1)"><path d="M8.06-6.05L8.06-6.05L6.94-6.05Q6.52-7.78 4.55-7.83L4.55-7.83Q1.83-7.69 1.73-4.36L1.73-4.36Q1.73-0.80 4.59-0.80L4.59-0.80Q6.56-0.84 7.03-3.19L7.03-3.19L8.16-3.19Q7.64 0.05 4.36 0.14L4.36 0.14Q0.61 0 0.52-4.31L0.52-4.31Q0.70-8.63 4.55-8.81L4.55-8.81Q7.59-8.72 8.06-6.05ZM16.31-4.27L16.31-4.27Q16.13-7.64 13.31-7.83L13.31-7.83Q10.45-7.69 10.31-4.27L10.31-4.27Q10.45-0.94 13.31-0.80L13.31-0.80Q16.13-0.98 16.31-4.27ZM17.48-4.27L17.48-4.27Q17.20 0 13.31 0.14L13.31 0.14Q9.38 0 9.09-4.27L9.09-4.27Q9.33-8.72 13.31-8.81L13.31-8.81Q17.20-8.67 17.48-4.27ZM20.25-8.58L24.56-1.64L24.56-8.58L25.69-8.58L25.69 0L24.38 0L20.02-6.94L19.97-6.94L19.97 0L18.84 0L18.84-8.58L20.25-8.58ZM28.88-8.58L33.19-1.64L33.19-8.58L34.31-8.58L34.31 0L33 0L28.64-6.94L28.59-6.94L28.59 0L27.47 0L27.47-8.58L28.88-8.58ZM37.41-1.03L42.56-1.03L42.56 0L36.23 0L36.23-8.58L42.47-8.58L42.47-7.59L37.41-7.59L37.41-4.92L42.09-4.92L42.09-3.89L37.41-3.89L37.41-1.03ZM51.23-6.05L51.23-6.05L50.11-6.05Q49.69-7.78 47.72-7.83L47.72-7.83Q45-7.69 44.91-4.36L44.91-4.36Q44.91-0.80 47.77-0.80L47.77-0.80Q49.73-0.84 50.20-3.19L50.20-3.19L51.33-3.19Q50.81 0.05 47.53 0.14L47.53 0.14Q43.78 0 43.69-4.31L43.69-4.31Q43.88-8.63 47.72-8.81L47.72-8.81Q50.77-8.72 51.23-6.05ZM54.89-7.59L51.98-7.59L51.98-8.58L58.92-8.58L58.92-7.59L56.02-7.59L56.02 0L54.89 0L54.89-7.59ZM66.75-4.27L66.75-4.27Q66.56-7.64 63.75-7.83L63.75-7.83Q60.89-7.69 60.75-4.27L60.75-4.27Q60.89-0.94 63.75-0.80L63.75-0.80Q66.56-0.98 66.75-4.27ZM67.92-4.27L67.92-4.27Q67.64 0 63.75 0.14L63.75 0.14Q59.81 0 59.53-4.27L59.53-4.27Q59.77-8.72 63.75-8.81L63.75-8.81Q67.64-8.67 67.92-4.27ZM73.41-3.70L70.59-3.70L70.59 0L69.42 0L69.42-8.58L73.41-8.58Q76.27-8.58 76.27-6.28L76.27-6.28Q76.27-4.88 75.05-4.22L75.05-4.22Q76.08-3.94 76.08-2.58L76.08-2.58L76.17-1.03Q76.13-0.38 76.59-0.19L76.59-0.19L76.59 0L75.14 0Q75-0.61 74.95-2.16L74.95-2.16Q75-3.70 73.41-3.70L73.41-3.70ZM73.50-7.64L70.59-7.64L70.59-4.69L73.31-4.69Q75.05-4.69 75.05-6.19L75.05-6.19Q75.05-7.64 73.50-7.64L73.50-7.64Z" transform="translate(-0.515625, 8.8125)"></path></g></g></g></g></g><defs v-gra="od"></defs></svg>
