<?xml version="1.0" encoding="UTF-8"?>
<svg id="_图层_1" data-name="图层 1" xmlns="http://www.w3.org/2000/svg" viewBox="0 0 500 500">
  <defs>
    <style>
      .cls-1 {
        fill: #5981e9;
      }

      .cls-2 {
        fill: #5a80eb;
      }

      .cls-3 {
        fill: #27d6d7;
      }

      .cls-4 {
        fill: rgba(51, 51, 51, 0);
      }
    </style>
  </defs>
  <rect class="cls-4" x="83.98" y="17" width="336.19" height="461.01"/>
  <path class="cls-1" d="m246.97,365.04v103.04c0,9.55-.38,10.16-10.12,9.85-23.5-.97-46.47-7.29-67.16-18.48-26.78-13.68-49.04-34.8-64.09-60.84-13.89-22.49-21.37-48.35-21.62-74.79.23-41.21,0-82.57,0-123.9,0-9.05.61-9.58,9.89-9.58,25.65,0,51.33-.5,76.94,0,18.78.69,36.71,7.98,50.64,20.59,13.61,11.5,20.2,26.83,24.73,43.36.65,3.11.89,6.29.73,9.47.08,33.79.1,67.54.08,101.28Zm-82.03-103.5c8.59.7,16.12-5.7,16.82-14.28.04-.49.06-.98.05-1.47-.61-8.74-7.69-15.64-16.45-16.02-8.98.02-16.24,7.31-16.22,16.29,0,.13,0,.26,0,.39.08,8.47,7.01,15.27,15.48,15.19.1,0,.21,0,.31,0v-.08Z"/>
  <path class="cls-2" d="m300.79,350.66h111.97c5.18,0,7.44,1.73,7.4,7.02v113.24c0,5.25-2.3,7.05-7.36,7.09-14.34-.39-28.54-2.85-42.17-7.32-26.9-8.14-51.11-23.38-70.07-44.12-15.46-16.49-27.23-36.1-34.5-57.5-6.8-19.85-9.83-40.79-8.93-61.76.5-13.95-.23-27.98,0-42.17.84-27.72,14.68-48.95,37.68-63.37,12.62-7.89,27.29-11.89,42.17-11.5,24.61.54,49.18,0,73.79,0,8.32,0,9.01.81,9.05,9.12,0,36.65-13.95,68-36.07,96.18-16.52,20.47-37.85,36.53-62.1,46.73-6.75,2.95-13.88,4.98-20.85,7.44v.92Z"/>
  <path class="cls-3" d="m83.98,98.5V25.93c0-7.94.92-8.78,8.93-8.78h144.98c8.4,0,9.05.65,9.05,9.09,0,26.83.23,53.9,0,80.81-.38,12.2-3.93,24.09-10.31,34.5-10.52,18.47-28.14,31.84-48.76,36.99-8.02,2.02-16.31,2.81-24.57,2.34-19.24-.98-38.51-.86-57.73.38-20.47,1.61-21.58.73-21.58-19.78v-62.98Zm173.19-31.2V24.67c0-5.44,2.15-7.67,7.67-7.67,14.33.57,28.51,3.07,42.17,7.44,24.33,7.1,46.44,20.3,64.25,38.33,16.19,14.99,28.74,33.47,36.69,54.05,6.63,17.83,12.08,35.61,12.08,54.74,0,7.94-.81,8.28-8.74,8.86-27.68,1.92-55.32,0-82.95-.46-23.96-.54-42.82-12.57-56.77-32.39-10.93-15.81-16.04-34.93-14.45-54.09.42-8.82.08-17.52.08-26.18h0Z"/>
</svg>